{"title":"Coopers Christmas (2008) DVDRip","uid":9360250,"size":739234819,"categoryP":"video","categoryS":"movies","magnet":"?xt=urn:btih:859d9b19bcef563b6fe77e47f13a936e8ca3d3a6&amp;dn=Coopers+Christmas+%282008%29+DVDRip&amp;tr=udp%3A%2F%2Ftracker.openbittorrent.com%3A80&amp;tr=udp%3A%2F%2Fopen.demonii.com%3A1337&amp;tr=udp%3A%2F%2Ftracker.coppersurfer.tk%3A6969&amp;tr=udp%3A%2F%2Fexodus.desync.com%3A6969","seeders":0,"leechers":0,"uploader":"7","files":1,"time":1387300691,"description":" &lt;a href=&quot;http://lookpic.com/O/i2/1038/SzHkKa1.jpeg&quot; rel=&quot;nofollow&quot; target=&quot;_NEW&quot;&gt;http://lookpic.com/O/i2/1038/SzHkKa1.jpeg&lt;/a&gt;\n\nCoopers Christmas (2008) DVDRip\n\nIMDb: \n &lt;a href=&quot;\nhttp://www.imdb.com/title/tt1242777/&quot; rel=&quot;nofollow&quot; target=&quot;_NEW&quot;&gt;\nhttp://www.imdb.com/title/tt1242777/&lt;/a&gt;\n\n\n\nGeneral\nComplete name                            : Coopers Christmas (2008).avi\nFormat                                   : AVI\nFormat/Info                              : Audio Video Interleave\nFile size                                : 705 MiB\nDuration                                 : 1h 31mn\nOverall bit rate                         : 1 072 Kbps\n\nVideo\nID                                       : 0\nFormat                                   : MPEG-4 Visual\nFormat profile                           : Simple@L3\nFormat settings, BVOP                    : No\nFormat settings, QPel                    : No\nFormat settings, GMC                     : No warppoints\nFormat settings, Matrix                  : Default (H.263)\nCodec ID                                 : XVID\nCodec ID/Hint                            : XviD\nDuration                                 : 1h 31mn\nBit rate                                 : 931 Kbps\nWidth                                    : 656 pixels\nHeight                                   : 352 pixels\nDisplay aspect ratio                     : 1.85:1\nFrame rate                               : 29.970 fps\nOriginal frame rate                      : 29.000 fps\nColor space                              : YUV\nChroma subsampling                       : 4:2:0\nBit depth                                : 8 bits\nScan type                                : Progressive\nCompression mode                         : Lossy\nBits/(Pixel*Frame)                       : 0.135\nStream size                              : 612 MiB (87%)\nWriting library                          : XviD 1.2.1 (UTC 2008-12-04)\n\nAudio\nID                                       : 1\nFormat                                   : MPEG Audio\nFormat version                           : Version 1\nFormat profile                           : Layer 3\nMode                                     : Joint stereo\nCodec ID                                 : 55\nCodec ID/Hint                            : MP3\nDuration                                 : 1h 31mn\nBit rate mode                            : Constant\nBit rate                                 : 128 Kbps\nChannel(s)                               : 2 channels\nSampling rate                            : 44.1 KHz\nCompression mode                         : Lossy\nStream size                              : 84.2 MiB (12%)\nAlignment                                : Aligned on interleaves\nInterleave, duration                     : 26 ms (0.78 video frame)\nWriting library                          : LAME3.98.2\n &lt;a href=&quot;\nhttp://lookpic.com/O/i2/224/shzZMWUb.jpeg&quot; rel=&quot;nofollow&quot; target=&quot;_NEW&quot;&gt;\nhttp://lookpic.com/O/i2/224/shzZMWUb.jpeg&lt;/a&gt;","torrent":{"xt":"urn:btih:859d9b19bcef563b6fe77e47f13a936e8ca3d3a6","amp;dn":"Coopers+Christmas+%282008%29+DVDRip","amp;tr":["udp%3A%2F%2Ftracker.openbittorrent.com%3A80","udp%3A%2F%2Fopen.demonii.com%3A1337","udp%3A%2F%2Ftracker.coppersurfer.tk%3A6969","udp%3A%2F%2Fexodus.desync.com%3A6969"],"infoHash":"859d9b19bcef563b6fe77e47f13a936e8ca3d3a6","infoHashBuffer":{"type":"Buffer","data":[133,157,155,25,188,239,86,59,111,231,126,71,241,58,147,110,140,163,211,166]},"announce":[],"urlList":[]}}